<svg width="1440" height="450" viewBox="0 0 1440 450" fill="none" xmlns="http://www.w3.org/2000/svg">
<rect width="1440" height="450" fill="#F9BB1D"/>
<path d="M697.7 246.7H669.9L665.3 260H650.6L675.7 190.1H692L717.1 260H702.3L697.7 246.7ZM693.9 235.5L683.8 206.3L673.7 235.5H693.9ZM750.882 190.2C758.215 190.2 764.649 191.633 770.182 194.5C775.782 197.367 780.082 201.467 783.082 206.8C786.149 212.067 787.682 218.2 787.682 225.2C787.682 232.2 786.149 238.333 783.082 243.6C780.082 248.8 775.782 252.833 770.182 255.7C764.649 258.567 758.215 260 750.882 260H726.482V190.2H750.882ZM750.382 248.1C757.715 248.1 763.382 246.1 767.382 242.1C771.382 238.1 773.382 232.467 773.382 225.2C773.382 217.933 771.382 212.267 767.382 208.2C763.382 204.067 757.715 202 750.382 202H740.482V248.1H750.382Z" fill="#141414"/>
</svg>
